<svg xmlns="http://www.w3.org/2000/svg" viewBox="0 0 504.08 306.75"><g id="Camada_2" data-name="Camada 2"><g id="Camada_1-2" data-name="Camada 1"><path d="M449.2,197.17a54.76,54.76,0,0,0-45.38,24.12l-100-50a54.59,54.59,0,0,0,0-35.74l100-50a54.85,54.85,0,1,0-6.42-12.83l-100,50a54.78,54.78,0,0,0-99.71,23.52H109.15a54.82,54.82,0,1,0,0,14.34h88.54a54.79,54.79,0,0,0,99.68,23.53l100,50h0a54.81,54.81,0,1,0,51.81-36.95Zm0-182.75a40.51,40.51,0,1,1-28.59,11.86A40.46,40.46,0,0,1,449.2,14.42ZM54.82,193.9A40.51,40.51,0,1,1,83.43,182,40.47,40.47,0,0,1,54.82,193.9Zm197.19,0a40.44,40.44,0,1,1,34.44-19.19A40.52,40.52,0,0,1,252,193.9ZM449.2,292.46h0a40.53,40.53,0,1,1,28.6-11.87,40.47,40.47,0,0,1-28.6,11.87Z"/></g></g></svg>