<svg xmlns="http://www.w3.org/2000/svg" viewBox="0 0 503.99 437.85"><g id="Camada_2" data-name="Camada 2"><g id="Camada_1-2" data-name="Camada 1"><path d="M88.77,306.51a55.68,55.68,0,1,0-55.68-55.68A55.74,55.74,0,0,0,88.77,306.51Zm0-94.55a38.88,38.88,0,1,1-38.88,38.87A38.92,38.92,0,0,1,88.77,212Z"/><path d="M88.77,321.78A88.87,88.87,0,0,0,0,410.54a27.34,27.34,0,0,0,27.31,27.31H150.22a27.34,27.34,0,0,0,27.31-27.31,88.87,88.87,0,0,0-88.77-88.76Zm61.46,99.27H27.32A10.52,10.52,0,0,1,16.8,410.54a72,72,0,0,1,143.93,0,10.51,10.51,0,0,1-10.5,10.51Z"/><path d="M252,202.64A55.68,55.68,0,1,0,196.32,147,55.74,55.74,0,0,0,252,202.64Zm0-94.55A38.88,38.88,0,1,1,213.12,147,38.92,38.92,0,0,1,252,108.09Z"/><path d="M340.77,306.69a88.77,88.77,0,1,0-177.54,0A27.35,27.35,0,0,0,190.54,334H313.45a27.35,27.35,0,0,0,27.31-27.31ZM313.46,317.2H190.54A10.51,10.51,0,0,1,180,306.69a72,72,0,1,1,143.93,0,10.53,10.53,0,0,1-10.51,10.51Z"/><path d="M415.23,306.51a55.68,55.68,0,1,0-55.68-55.68A55.74,55.74,0,0,0,415.23,306.51Zm0-94.55a38.88,38.88,0,1,1-38.88,38.87A38.92,38.92,0,0,1,415.23,212Z"/><path d="M415.23,321.78a88.86,88.86,0,0,0-88.77,88.76,27.34,27.34,0,0,0,27.3,27.31H476.67A27.35,27.35,0,0,0,504,410.54a88.87,88.87,0,0,0-88.77-88.76Zm61.45,99.27H353.77a10.52,10.52,0,0,1-10.51-10.51,72,72,0,0,1,143.93,0,10.52,10.52,0,0,1-10.51,10.51Z"/><path d="M252,60.32a8.39,8.39,0,0,0,8.39-8.4V8.4a8.4,8.4,0,1,0-16.79,0V51.92A8.41,8.41,0,0,0,252,60.32Z"/><path d="M381.52,114a8.37,8.37,0,0,0,5.94-2.46l30.77-30.77a8.4,8.4,0,0,0-11.88-11.88L375.58,99.63A8.4,8.4,0,0,0,381.52,114Z"/><path d="M116.54,111.51a8.4,8.4,0,0,0,11.88-11.88L97.65,68.85A8.4,8.4,0,0,0,85.77,80.73Z"/><path d="M174.14,69.07a8.4,8.4,0,1,0,15.52-6.43L173,22.43a8.4,8.4,0,0,0-15.52,6.43Z"/><path d="M318.88,73.62a8.42,8.42,0,0,0,11-4.55l16.66-40.21A8.4,8.4,0,0,0,331,22.43L314.33,62.64a8.41,8.41,0,0,0,4.55,11Z"/></g></g></svg>