<?xml version="1.0" encoding="UTF-8"?>
<svg width="700pt" height="700pt" version="1.1" viewBox="0 0 700 700" xmlns="http://www.w3.org/2000/svg" xmlns:xlink="http://www.w3.org/1999/xlink">
 <defs>
  <symbol id="m" overflow="visible">
   <path d="m31.266-1.875c-1.6172 0.84375-3.2969 1.4766-5.0469 1.8906-1.7422 0.42578-3.5586 0.64062-5.4531 0.64062-5.668 0-10.156-1.582-13.469-4.75-3.3125-3.1641-4.9688-7.4609-4.9688-12.891 0-5.4375 1.6562-9.7383 4.9688-12.906 3.3125-3.1641 7.8008-4.75 13.469-4.75 1.8945 0 3.7109 0.21484 5.4531 0.64062 1.75 0.42969 3.4297 1.0586 5.0469 1.8906v7.0469c-1.625-1.1133-3.2305-1.9258-4.8125-2.4375-1.5742-0.51953-3.2344-0.78125-4.9844-0.78125-3.1367 0-5.6016 1.0078-7.3906 3.0156-1.793 2-2.6875 4.7617-2.6875 8.2812 0 3.5117 0.89453 6.2734 2.6875 8.2812 1.7891 2 4.2539 3 7.3906 3 1.75 0 3.4102-0.25391 4.9844-0.76562 1.582-0.51953 3.1875-1.332 4.8125-2.4375z"/>
  </symbol>
  <symbol id="i" overflow="visible">
   <path d="m22.875-18.578c-0.71094-0.33203-1.418-0.57812-2.125-0.73438-0.71094-0.15625-1.418-0.23438-2.125-0.23438-2.1055 0-3.7266 0.67188-4.8594 2.0156-1.125 1.3438-1.6875 3.2656-1.6875 5.7656v11.766h-8.1562v-25.531h8.1562v4.2031c1.0508-1.6758 2.2539-2.8945 3.6094-3.6562 1.3633-0.76953 2.9922-1.1562 4.8906-1.1562 0.26953 0 0.56641 0.011719 0.89062 0.03125 0.32031 0.023437 0.78516 0.074219 1.3906 0.15625z"/>
  </symbol>
  <symbol id="a" overflow="visible">
   <path d="m29.391-12.828v2.3281h-19.062c0.19531 1.9062 0.88281 3.3398 2.0625 4.2969 1.1875 0.96094 2.8438 1.4375 4.9688 1.4375 1.7188 0 3.4766-0.25391 5.2812-0.76562 1.8008-0.50781 3.6484-1.2812 5.5469-2.3125v6.2969c-1.9297 0.73047-3.8594 1.2773-5.7969 1.6406-1.9297 0.375-3.8555 0.5625-5.7812 0.5625-4.6172 0-8.2031-1.1719-10.766-3.5156s-3.8438-5.6328-3.8438-9.875c0-4.1641 1.2539-7.4414 3.7656-9.8281 2.5195-2.3828 5.9844-3.5781 10.391-3.5781 4.0078 0 7.2188 1.2109 9.625 3.625 2.4062 2.418 3.6094 5.6484 3.6094 9.6875zm-8.375-2.7188c0-1.5391-0.45312-2.7852-1.3594-3.7344-0.90625-0.95703-2.0898-1.4375-3.5469-1.4375-1.5859 0-2.8711 0.44922-3.8594 1.3438-0.98047 0.88672-1.5898 2.1641-1.8281 3.8281z"/>
  </symbol>
  <symbol id="h" overflow="visible">
   <path d="m15.359-11.484c-1.6992 0-2.9805 0.29297-3.8438 0.875-0.85547 0.57422-1.2812 1.4219-1.2812 2.5469 0 1.0312 0.34375 1.8398 1.0312 2.4219 0.69531 0.58594 1.6602 0.875 2.8906 0.875 1.5312 0 2.8164-0.54688 3.8594-1.6406 1.0508-1.1016 1.5781-2.4844 1.5781-4.1406v-0.9375zm12.469-3.0781v14.562h-8.2344v-3.7812c-1.0938 1.5547-2.3242 2.6836-3.6875 3.3906-1.3672 0.69531-3.0273 1.0469-4.9844 1.0469-2.6484 0-4.7969-0.76953-6.4531-2.3125-1.6484-1.5391-2.4688-3.5391-2.4688-6 0-2.9883 1.0312-5.1797 3.0938-6.5781 2.0625-1.4062 5.2969-2.1094 9.7031-2.1094h4.7969v-0.64062c0-1.2891-0.51172-2.2344-1.5312-2.8281-1.0117-0.60156-2.5938-0.90625-4.75-0.90625-1.75 0-3.3828 0.17969-4.8906 0.53125-1.5 0.34375-2.8984 0.86719-4.1875 1.5625v-6.2188c1.75-0.42578 3.5039-0.75 5.2656-0.96875 1.7578-0.21875 3.5234-0.32812 5.2969-0.32812 4.5938 0 7.9102 0.91406 9.9531 2.7344 2.0508 1.8125 3.0781 4.7617 3.0781 8.8438z"/>
  </symbol>
  <symbol id="d" overflow="visible">
   <path d="m12.828-32.766v7.2344h8.4062v5.8438h-8.4062v10.828c0 1.1797 0.23438 1.9805 0.70312 2.4062 0.47656 0.41797 1.4141 0.625 2.8125 0.625h4.1875v5.8281h-7c-3.2188 0-5.5-0.67188-6.8438-2.0156s-2.0156-3.625-2.0156-6.8438v-10.828h-4.0625v-5.8438h4.0625v-7.2344z"/>
  </symbol>
  <symbol id="c" overflow="visible">
   <path d="m21.281-21.781v-13.672h8.2031v35.453h-8.2031v-3.6875c-1.125 1.5-2.3672 2.6016-3.7188 3.2969-1.3438 0.69531-2.9062 1.0469-4.6875 1.0469-3.1484 0-5.7305-1.25-7.75-3.75-2.0234-2.5-3.0312-5.7109-3.0312-9.6406 0-3.9375 1.0078-7.1562 3.0312-9.6562 2.0195-2.5 4.6016-3.75 7.75-3.75 1.7578 0 3.3164 0.35547 4.6719 1.0625 1.3633 0.71094 2.6094 1.8086 3.7344 3.2969zm-5.375 16.516c1.75 0 3.082-0.63281 4-1.9062 0.91406-1.2812 1.375-3.1328 1.375-5.5625 0-2.4375-0.46094-4.2891-1.375-5.5625-0.91797-1.2812-2.25-1.9219-4-1.9219-1.7305 0-3.0586 0.64062-3.9844 1.9219-0.91797 1.2734-1.375 3.125-1.375 5.5625 0 2.4297 0.45703 4.2812 1.375 5.5625 0.92578 1.2734 2.2539 1.9062 3.9844 1.9062z"/>
  </symbol>
  <symbol id="g" overflow="visible">
   <path d="m17.5-5.2656c1.75 0 3.082-0.63281 4-1.9062 0.91406-1.2812 1.375-3.1328 1.375-5.5625 0-2.4375-0.46094-4.2891-1.375-5.5625-0.91797-1.2812-2.25-1.9219-4-1.9219s-3.0938 0.64844-4.0312 1.9375c-0.92969 1.2812-1.3906 3.1328-1.3906 5.5469 0 2.418 0.46094 4.2656 1.3906 5.5469 0.9375 1.2812 2.2812 1.9219 4.0312 1.9219zm-5.4219-16.516c1.125-1.4883 2.3672-2.5859 3.7344-3.2969 1.3633-0.70703 2.9375-1.0625 4.7188-1.0625 3.1445 0 5.7266 1.25 7.75 3.75 2.0195 2.5 3.0312 5.7188 3.0312 9.6562 0 3.9297-1.0117 7.1406-3.0312 9.6406-2.0234 2.5-4.6055 3.75-7.75 3.75-1.7812 0-3.3555-0.35156-4.7188-1.0469-1.3672-0.70703-2.6094-1.8047-3.7344-3.2969v3.6875h-8.1562v-35.453h8.1562z"/>
  </symbol>
  <symbol id="b" overflow="visible">
   <path d="m0.5625-25.531h8.1719l6.8594 17.328 5.8281-17.328h8.1562l-10.734 27.953c-1.0742 2.832-2.3281 4.8164-3.7656 5.9531-1.4375 1.1328-3.3359 1.7031-5.6875 1.7031h-4.7188v-5.3594h2.5469c1.3828 0 2.3906-0.22656 3.0156-0.67188 0.63281-0.4375 1.1289-1.2266 1.4844-2.3594l0.21875-0.70312z"/>
  </symbol>
  <symbol id="f" overflow="visible">
   <path d="m24.938-6.2031h-13.719l-2.1719 6.2031h-8.8125l12.594-34.031h10.469l12.594 34.031h-8.8125zm-11.531-6.3125h9.3125l-4.6406-13.531z"/>
  </symbol>
  <symbol id="e" overflow="visible">
   <path d="m29.578-15.547v15.547h-8.2031v-11.891c0-2.207-0.054688-3.7266-0.15625-4.5625-0.09375-0.83203-0.26172-1.4453-0.5-1.8438-0.32422-0.53125-0.76172-0.94141-1.3125-1.2344-0.54297-0.30078-1.1641-0.45312-1.8594-0.45312-1.6992 0-3.0391 0.65625-4.0156 1.9688-0.96875 1.3125-1.4531 3.1328-1.4531 5.4531v12.562h-8.1562v-25.531h8.1562v3.75c1.2266-1.4883 2.5352-2.5859 3.9219-3.2969 1.3828-0.70703 2.9102-1.0625 4.5781-1.0625 2.9453 0 5.1797 0.90625 6.7031 2.7188 1.5312 1.8047 2.2969 4.4297 2.2969 7.875z"/>
  </symbol>
  <symbol id="l" overflow="visible">
   <path d="m29.578-15.547v15.547h-8.2031v-11.844c0-2.2383-0.054688-3.7734-0.15625-4.6094-0.09375-0.83203-0.26172-1.4453-0.5-1.8438-0.32422-0.53125-0.76172-0.94141-1.3125-1.2344-0.54297-0.30078-1.1641-0.45312-1.8594-0.45312-1.6992 0-3.0391 0.65625-4.0156 1.9688-0.96875 1.3125-1.4531 3.1328-1.4531 5.4531v12.562h-8.1562v-35.453h8.1562v13.672c1.2266-1.4883 2.5352-2.5859 3.9219-3.2969 1.3828-0.70703 2.9102-1.0625 4.5781-1.0625 2.9453 0 5.1797 0.90625 6.7031 2.7188 1.5312 1.8047 2.2969 4.4297 2.2969 7.875z"/>
  </symbol>
  <symbol id="k" overflow="visible">
   <path d="m16.062-20.312c-1.8047 0-3.1836 0.65234-4.1406 1.9531-0.94922 1.3047-1.4219 3.1797-1.4219 5.625 0 2.4492 0.47266 4.3242 1.4219 5.625 0.95703 1.293 2.3359 1.9375 4.1406 1.9375 1.7812 0 3.1406-0.64453 4.0781-1.9375 0.94531-1.3008 1.4219-3.1758 1.4219-5.625 0-2.4453-0.47656-4.3203-1.4219-5.625-0.9375-1.3008-2.2969-1.9531-4.0781-1.9531zm0-5.8281c4.3945 0 7.8281 1.1875 10.297 3.5625 2.4688 2.3672 3.7031 5.6484 3.7031 9.8438 0 4.1875-1.2344 7.4688-3.7031 9.8438-2.4688 2.3672-5.9023 3.5469-10.297 3.5469-4.4062 0-7.8555-1.1797-10.344-3.5469-2.4805-2.375-3.7188-5.6562-3.7188-9.8438 0-4.1953 1.2383-7.4766 3.7188-9.8438 2.4883-2.375 5.9375-3.5625 10.344-3.5625z"/>
  </symbol>
  <symbol id="j" overflow="visible">
   <path d="m4.2812-34.031h8.7812v27.406h15.406v6.625h-24.188z"/>
  </symbol>
 </defs>
 <g>
  <path d="m444.54 377.04c-2.4766 0-4.8516-0.98437-6.5977-2.7344l-41.719-41.719c-3.6445-3.6445-3.6445-9.5547 0-13.199 3.6445-3.6445 9.5547-3.6445 13.199 0l41.719 41.719h-0.003906c2.668 2.668 3.4688 6.6836 2.0234 10.168-1.4453 3.4883-4.8477 5.7617-8.6211 5.7656z"/>
  <path d="m297.26 229.76c-2.4766 0-4.8516-0.98438-6.6016-2.7383l-41.812-41.812c-3.6445-3.6445-3.6445-9.5508 0-13.195 3.6445-3.6445 9.5547-3.6445 13.199 0l41.812 41.812c2.668 2.668 3.4688 6.6836 2.0234 10.168-1.4453 3.4883-4.8477 5.7617-8.6211 5.7617z"/>
  <path d="m432.5 430.99c-2.4766 0-4.8516-0.98438-6.6016-2.7344l-62.715-62.723c-1.7539-1.7539-2.7383-4.1289-2.7344-6.6055 0-2.4766 0.98828-4.8516 2.7422-6.6016l65.965-65.965v-0.003906c1.75-1.7539 4.125-2.7383 6.6016-2.7422h0.007813c2.4766 0 4.8477 0.98438 6.5977 2.7344l62.723 62.719c1.75 1.75 2.7344 4.125 2.7344 6.5977 0 2.4766-0.98437 4.8516-2.7344 6.6016l-65.988 65.988c-1.75 1.75-4.125 2.7344-6.5977 2.7344zm-49.512-72.047 49.512 49.516 52.793-52.793-49.516-49.512z"/>
  <path d="m264.22 262.7c-2.4727 0.003906-4.8477-0.98047-6.5977-2.7344l-62.723-62.719v0.003906c-1.75-1.75-2.7344-4.125-2.7344-6.6016 0-2.4727 0.98438-4.8477 2.7344-6.5977l65.988-65.988h0.003906c3.7031-3.5 9.4922-3.5 13.195 0l62.719 62.723v-0.003906c3.6406 3.6406 3.6445 9.543 0.007812 13.191l-66.004 66.004h0.003906c-1.75 1.7461-4.1211 2.7266-6.5938 2.7227zm-49.523-72.051 49.535 49.527 52.785-52.785-49.527-49.535z"/>
  <path d="m201.49 200c-4.5547-0.003906-8.4453-3.3008-9.1953-7.7969l-13.203-79.195v-0.003906c-0.49609-2.9727 0.47656-6 2.6094-8.1328 2.1289-2.1328 5.1602-3.1016 8.1328-2.6055l79.199 13.199c2.457 0.39062 4.6602 1.7461 6.1133 3.7656 1.457 2.0195 2.0469 4.5352 1.6367 6.9922-0.41016 2.4531-1.7852 4.6445-3.8164 6.082s-4.5547 2.0039-7.0078 1.5742l-66.305-11.051 11.051 66.305 0.003907-0.003906c0.44922 2.7109-0.3125 5.4805-2.0898 7.5742-1.7734 2.0938-4.3828 3.2969-7.125 3.2969z"/>
  <path d="m478.69 457.87c-14.879 0.027344-29.148-5.8984-39.625-16.457l-13.16-13.16h-0.003906c-1.75-1.75-2.7344-4.125-2.7344-6.6016 0-2.4727 0.98438-4.8477 2.7344-6.5977l65.988-65.988h0.003906c1.75-1.75 4.1211-2.7344 6.5977-2.7344 2.4727 0 4.8477 0.98438 6.5977 2.7344l13.156 13.16c10.484 10.5 16.375 24.73 16.379 39.566 0.007812 14.84-5.8672 29.074-16.34 39.582-10.473 10.512-24.684 16.441-39.523 16.492zm-32.992-36.215 6.5625 6.5625v-0.003906c6.9883 7.0469 16.508 11 26.43 10.984h0.050781c9.875 0.011719 19.348-3.9375 26.289-10.965l0.035156-0.035156c7.0273-6.9883 10.973-16.484 10.973-26.391-0.003906-9.9062-3.9609-19.402-10.988-26.383l-6.5586-6.5586z"/>
  <path d="m255.46 377.02c-3.7734 0-7.1758-2.2734-8.6211-5.7617-1.4453-3.4883-0.64453-7.5 2.0234-10.168l189.06-189.07c3.6445-3.6445 9.5547-3.6445 13.199 0 3.6445 3.6445 3.6445 9.5547 0 13.199l-189.07 189.06c-1.7461 1.7539-4.1211 2.7383-6.5977 2.7344z"/>
  <path d="m267.5 430.98c-2.4766 0-4.8516-0.98438-6.5977-2.7383l-65.992-65.992h-0.003906c-1.75-1.75-2.7344-4.125-2.7344-6.5977 0-2.4766 0.98438-4.8516 2.7344-6.6016l230.99-230.98c1.75-1.75 4.125-2.7344 6.5977-2.7344 2.4766 0 4.8516 0.98437 6.6016 2.7344l65.992 65.992c1.75 1.75 2.7344 4.125 2.7344 6.6016 0 2.4727-0.98438 4.8477-2.7344 6.5977l-230.98 230.99c-1.75 1.75-4.125 2.7344-6.6016 2.7344zm-52.797-75.328 52.797 52.797 217.79-217.79-52.797-52.797z"/>
  <path d="m498.49 200c-2.7461 0.003906-5.3516-1.2031-7.125-3.2969-1.7773-2.0938-2.5391-4.8633-2.0898-7.5742l11.051-66.305-66.305 11.051v0.003906c-5.0586 0.79688-9.8164-2.6328-10.66-7.6836-0.84375-5.0547 2.543-9.8398 7.5898-10.73l79.195-13.203v0.003907c2.9766-0.49609 6.0039 0.47266 8.1367 2.6055 2.1328 2.1328 3.1016 5.1602 2.6055 8.1328l-13.203 79.199c-0.75 4.4961-4.6367 7.7891-9.1953 7.7969z"/>
  <path d="m221.3 457.85c-14.852 0-29.098-5.8984-39.598-16.402-10.504-10.5-16.402-24.746-16.402-39.598 0-14.852 5.8984-29.094 16.402-39.598l13.203-13.199h-0.003906c1.75-1.75 4.125-2.7344 6.6016-2.7344 2.4727 0 4.8477 0.98438 6.5977 2.7344l65.996 65.996c1.75 1.75 2.7344 4.125 2.7344 6.5977 0 2.4766-0.98438 4.8516-2.7344 6.6016l-13.199 13.203v-0.003906c-10.48 10.539-24.738 16.445-39.598 16.402zm-19.797-89-6.6055 6.5977v0.003906c-9.4297 9.4297-13.113 23.18-9.6641 36.062 3.4531 12.883 13.52 22.949 26.402 26.398 12.883 3.4531 26.633-0.23047 36.062-9.6602l6.5977-6.6055z"/>
  <path d="m267.5 430.98c-2.4766 0-4.8516-0.98438-6.5977-2.7383l-65.992-65.992h-0.003906c-1.75-1.75-2.7344-4.125-2.7344-6.5977 0-2.4766 0.98438-4.8516 2.7344-6.6016l230.99-230.98c1.75-1.75 4.125-2.7344 6.5977-2.7344 2.4766 0 4.8516 0.98437 6.6016 2.7344l65.992 65.992c1.75 1.75 2.7344 4.125 2.7344 6.6016 0 2.4727-0.98438 4.8477-2.7344 6.5977l-230.98 230.99c-1.75 1.75-4.125 2.7344-6.6016 2.7344zm-52.797-75.328 52.797 52.797 217.79-217.79-52.797-52.797z"/>
  <use x="70" y="700" xlink:href="#m"/>
  <use x="104.25" y="700" xlink:href="#i"/>
  <use x="127.261719" y="700" xlink:href="#a"/>
  <use x="158.914062" y="700" xlink:href="#h"/>
  <use x="190.402344" y="700" xlink:href="#d"/>
  <use x="212.710937" y="700" xlink:href="#a"/>
  <use x="244.363281" y="700" xlink:href="#c"/>
  <use x="294.015625" y="700" xlink:href="#g"/>
  <use x="327.417969" y="700" xlink:href="#b"/>
  <use x="374.085938" y="700" xlink:href="#f"/>
  <use x="410.203125" y="700" xlink:href="#e"/>
  <use x="443.425781" y="700" xlink:href="#d"/>
  <use x="465.734375" y="700" xlink:href="#l"/>
  <use x="498.953125" y="700" xlink:href="#k"/>
  <use x="531.015625" y="700" xlink:href="#e"/>
  <use x="564.238281" y="700" xlink:href="#b"/>
  <use x="610.90625" y="700" xlink:href="#j"/>
  <use x="640.640625" y="700" xlink:href="#a"/>
  <use x="672.292969" y="700" xlink:href="#c"/>
 </g>
</svg>
