<svg xmlns="http://www.w3.org/2000/svg" viewBox="0 0 369.32 355.73"><g id="Camada_2" data-name="Camada 2"><g id="Camada_1-2" data-name="Camada 1"><path d="M279.24,274.9a9.32,9.32,0,0,1-6.6-2.73l-41.72-41.72a9.33,9.33,0,1,1,13.2-13.2L285.84,259h0a9.33,9.33,0,0,1-6.6,15.93Z"/><path d="M132,127.62a9.29,9.29,0,0,1-6.6-2.74L83.55,83.07a9.33,9.33,0,0,1,13.2-13.19l41.81,41.81a9.33,9.33,0,0,1-6.6,15.93Z"/><path d="M267.2,328.85a9.32,9.32,0,0,1-6.6-2.73l-62.72-62.73a9.33,9.33,0,0,1,0-13.2l66-66h0a9.29,9.29,0,0,1,6.6-2.74h0a9.32,9.32,0,0,1,6.59,2.73l62.73,62.72a9.34,9.34,0,0,1,0,13.2l-66,66a9.34,9.34,0,0,1-6.6,2.73ZM217.69,256.8l49.51,49.52L320,253.53,270.48,204Z"/><path d="M98.92,160.56a9.3,9.3,0,0,1-6.6-2.73L29.6,95.11h0a9.32,9.32,0,0,1,0-13.2l66-66h0a9.61,9.61,0,0,1,13.2,0l62.72,62.73h0a9.33,9.33,0,0,1,0,13.19l-66,66h0a9.27,9.27,0,0,1-6.59,2.72Zm-49.52-72L98.93,138l52.79-52.79L102.19,35.72Z"/><path d="M36.19,97.86a9.34,9.34,0,0,1-9.2-7.8L13.79,10.87h0A9.33,9.33,0,0,1,24.53.13l79.2,13.2a9.33,9.33,0,1,1-3.07,18.41l-66.31-11L45.4,87h0a9.34,9.34,0,0,1-9.22,10.87Z"/><path d="M313.39,355.73a55.64,55.64,0,0,1-39.62-16.46l-13.16-13.16h0a9.33,9.33,0,0,1,0-13.19l66-66h0a9.32,9.32,0,0,1,13.2,0l13.15,13.16a56,56,0,0,1-39.48,95.64Zm-33-36.21,6.56,6.56h0a37.15,37.15,0,0,0,26.43,11h.05a36.89,36.89,0,0,0,26.29-11l0,0a37.19,37.19,0,0,0,0-52.77l-6.56-6.56Z"/><path d="M90.16,274.88A9.33,9.33,0,0,1,83.56,259L272.62,69.88a9.33,9.33,0,1,1,13.2,13.2L96.75,272.14a9.32,9.32,0,0,1-6.6,2.74Z"/><path d="M102.2,328.84a9.29,9.29,0,0,1-6.6-2.74l-66-66h0a9.32,9.32,0,0,1,0-13.2l231-231a9.34,9.34,0,0,1,13.2,0l66,66a9.34,9.34,0,0,1,0,13.2l-231,231a9.35,9.35,0,0,1-6.6,2.74ZM49.4,253.51l52.8,52.8L320,88.52l-52.8-52.8Z"/><path d="M333.19,97.86A9.34,9.34,0,0,1,324,87l11-66.3-66.31,11h0a9.33,9.33,0,0,1-3.07-18.41L344.85.12h0a9.33,9.33,0,0,1,10.74,10.74l-13.2,79.2a9.34,9.34,0,0,1-9.2,7.79Z"/><path d="M56,355.71a56,56,0,0,1-39.6-95.6l13.21-13.2h0a9.34,9.34,0,0,1,13.2,0l66,66a9.34,9.34,0,0,1,0,13.2l-13.2,13.2h0A55.63,55.63,0,0,1,56,355.71Zm-19.8-89-6.6,6.6h0a37.34,37.34,0,0,0,52.8,52.8l6.6-6.6Z"/><path d="M102.2,328.84a9.29,9.29,0,0,1-6.6-2.74l-66-66h0a9.32,9.32,0,0,1,0-13.2l231-231a9.34,9.34,0,0,1,13.2,0l66,66a9.34,9.34,0,0,1,0,13.2l-231,231a9.35,9.35,0,0,1-6.6,2.74ZM49.4,253.51l52.8,52.8L320,88.52l-52.8-52.8Z"/></g></g></svg>