<svg xmlns="http://www.w3.org/2000/svg" viewBox="0 0 526.38 300.11"><g id="Camada_2" data-name="Camada 2"><g id="Camada_1-2" data-name="Camada 1"><path d="M495.41,149.23,324.74,32.37V73.22a11.21,11.21,0,0,1-11.21,11.2H226.86A205.22,205.22,0,0,0,24.11,262.48a227.74,227.74,0,0,1,53-31.1A225,225,0,0,1,163.81,214H313.54a11.21,11.21,0,0,1,11.2,11.2v40.84L495.41,149.22Zm-268.54-55a11.21,11.21,0,0,1,0,22.41,170.63,170.63,0,0,0-69.66,14.78A11.17,11.17,0,1,1,148.1,111a193.21,193.21,0,0,1,78.77-16.8ZM118.73,127.27a11.16,11.16,0,0,1,12.42,18.55l-4.47,3.11-4.42,3.29a11.16,11.16,0,1,1-13.65-17.67l5-3.73,5.1-3.55ZM319.85,1.93,521.46,140a11.19,11.19,0,0,1,0,18.5l-201,137.67a11.2,11.2,0,0,1-18.11-8.82V236.47H163.82a202.68,202.68,0,0,0-78.15,15.58,206.12,206.12,0,0,0-66,44.14A11.19,11.19,0,0,1,0,288.9,227.51,227.51,0,0,1,226.87,62h75.47V11.18A11.21,11.21,0,0,1,319.84,2Z"/></g></g></svg>